<mxfile host="app.diagrams.net" modified="2023-10-19T09:24:01.424Z" agent="Mozilla/5.0 (Macintosh; Intel Mac OS X 10_15_7) AppleWebKit/605.1.15 (KHTML, like Gecko) Version/16.6 Safari/605.1.15" version="22.0.5" etag="bum64pEHZrbesheE-GXe" type="github">
  <diagram name="第 1 页" id="sZ2lPtnH0GvwVktsAFT6">
    <mxGraphModel>
      <root>
        <mxCell id="0" />
        <mxCell id="1" parent="0" />
      </root>
    </mxGraphModel>
  </diagram>
</mxfile>
